<svg version="1.0" xmlns="http://www.w3.org/2000/svg" width="242" height="240" viewBox="0 0 2420 2400"><path d="M0 1200V0h2420v2400H0V1200z" fill="#020202"/><g fill="#313131"><path d="M0 1200V0h2420v2400H0V1200zm537 1028c50-55 58-108 17-108-23 0-25-3-22-37 2-30 8-39 24-41 14-2 24-12 27-27 5-30 1-35-30-35-20 0-23-5-23-40 0-36 3-40 24-40 14 0 28-5 31-10 11-18-5-49-28-52-18-2-23-11-25-40-3-35-1-38 22-38 15 0 26-7 28-17 7-31-4-53-24-53-11 0-27-7-36-16-13-14-31-16-99-11-106 6-113-1-113-122 0-119 2-121 154-122 67-1 110-4 96-8-20-5-26-14-28-43-3-32 0-37 20-40 34-5 29-60-8-99l-28-29H385c-123 0-133 1-153 22-25 28-45 76-38 95 3 7 15 13 26 13 18 0 21 5 18 37-2 29-8 39-23 42-42 7-40 61 2 61 22 0 24 4 21 38-2 29-7 38-25 40-23 3-41 38-26 52 4 4 17 10 28 12 15 2 21 12 23 41 3 34 1 37-22 37-15 0-26 7-28 18-7 32 4 52 29 52 22 0 24 4 21 37-2 29-8 39-23 42-11 2-23 8-26 13-12 18 3 47 25 50 16 2 22 11 24 41 3 33 1 37-21 37-42 0-44 54-2 61 15 3 21 13 23 42 3 31 0 37-17 37-41 0-39 47 5 99l26 31h132c125 0 134-1 153-22zm1766 4c17-18 47-84 47-101 0-5-12-11-27-13-49-5-40-78 9-78 29 0 21-54-9-58-42-6-42-78 0-84 34-5 34-43 0-60-38-18-40-69-3-78 20-5 25-12 25-35s-5-31-22-33c-25-4-38-32-28-61 3-11 16-21 28-23 16-2 22-10 22-28s-6-26-22-28c-25-4-38-32-28-61 3-11 16-21 28-23 29-4 38-58 10-58-25 0-43-19-43-47 0-23 26-43 48-36 16 6 15-3-5-59-10-29-25-50-40-57-30-14-258-14-284-1-24 13-49 61-49 94 0 18 6 25 23 28 33 5 31 58-3 75-22 11-9 13 91 13 91 0 119 3 129 15 16 19 17 202 2 217-7 7-46 11-96 10-63-1-88 3-96 14-7 7-20 14-30 14-19 0-32 33-23 56 3 8 14 14 24 14 24 0 33 21 25 55-4 16-13 25-25 25-10 0-21 7-25 15-8 23 4 45 25 45 12 0 21 9 25 25 8 34-1 55-25 55-38 0-37 48 2 65 32 14 31 69 0 73-17 3-23 10-23 28 0 32 25 80 47 93 10 6 77 11 149 11 113 0 133-2 147-18zm-885-459c3-10 62-13 252-13h248l4-40 3-39-270-6c-328-6-434-6-777 0l-268 6v79h254c218 0 255 2 267 16 11 13 34 15 148 12 96-2 136-7 139-15zm760-145c16-16 16-150 0-166-17-17-1809-17-1826 0-16 16-16 150 0 166 17 17 1809 17 1826 0zM689 1373c-3-139-10-158-77-233l-64-70-121 1c-67 0-130 4-140 8-17 6-16 8 7 19 18 8 26 19 26 37 0 25 1 25 88 25 135 0 195 42 196 137 1 39-3 49-21 58l-23 12 25 11c14 6 25 18 25 27 0 11 11 15 40 15h40l-1-47zm1125 10c3-21 6-65 6-98 0-71 11-93 103-195 53-58 68-82 76-122 15-68 14-86-10-134-15-32-32-49-67-66l-47-23H665l-50 25c-68 34-88 73-82 162 5 74 15 92 113 199 54 58 74 103 72 154-1 17-1 54 0 83l2 52h1087l7-37zm124 7c27-26 28-30 11-35-44-14-28-103 28-157 33-32 37-33 136-38s102-6 99-28c-3-18 4-25 30-34 33-12 33-12 8-19-14-4-79-7-145-8h-120l-59 65c-72 80-86 116-79 212 6 71 6 72 34 72 17 0 38-11 57-30zM517 1036c1-1 0-12-4-24-5-20-12-22-72-22-61 0-70-3-94-28-26-28-27-30-13-64 13-31 13-37-1-59-23-33-33-39-70-39-99 0-95 141 4 145 38 2 83 22 83 37 0 5-16 8-36 8-80 0-104 47-26 52 41 3 223-2 229-6zm1754 4c19 0 29-5 29-15 0-21-32-35-81-35h-42l23-25c19-20 30-24 55-19 68 12 116-75 70-126-22-25-81-27-107-3-21 19-25 82-6 101 9 9 5 19-17 42-26 27-34 30-95 30s-68 2-78 25l-11 24 72 4c40 2 92 2 116 0 24-1 57-3 72-3zM512 830c18-37 69-90 88-90 9 0 22-6 28-12 10-10 151-13 635-13 614 0 623 0 668 21 67 31 99 78 109 161 8 70 6-81-5-517-5-183-8-217-22-227-24-19-1476-19-1491 0-11 14-20 162-28 472-3 121-6 227-6 235-1 8 0 35 2 60l4 45 3-55c2-30 9-66 15-80z"/><path d="M1002 1398c-17-17-17-559 0-576s42-15 61 6c15 16 17 51 17 285 0 228-2 268-16 281-18 19-45 21-62 4zm119-2c-8-9-11-95-9-291 3-252 5-279 21-289 12-8 22-8 35 0 15 10 17 37 20 289 2 287 0 305-38 305-10 0-23-6-29-14zm116-4c-15-16-17-51-17-278 0-219 2-263 16-282 17-24 43-29 62-10 17 17 17 559 0 576s-42 15-61-6zm119 2c-24-23-24-545 0-568 17-18 50-21 59-6 8 13 8 567 0 580-9 15-41 12-59-6zm116 4c-17-17-17-559 0-576s42-15 61 6c15 16 17 51 17 285 0 228-2 268-16 281-18 19-45 21-62 4zm-690-140c-35-35 9-96 53-76 30 13 37 41 18 67-16 23-52 28-71 9zm898-7c-16-31-12-49 14-66 29-19 61-8 71 26 15 45-62 82-85 40zm-976-161c-11-4-34-24-52-44-61-70-35-176 54-217 56-25 103-18 150 23 78 69 65 186-26 233-31 16-93 19-126 5zm974-28c-35-33-41-45-46-90-4-44-1-58 21-91 54-81 162-89 226-16 86 99 20 235-114 235-39 0-52-5-87-38zM557 552c-8-12-8-199-1-279l6-63h698v335l-193 2c-105 1-262 5-348 9-97 4-159 3-162-4zm1091 1c-93-2-168-7-168-11 0-9 54-43 95-59 37-14 172-17 180-3 3 6 14 10 23 10 21 0 92 47 92 60 0 6-12 9-27 8-16-1-103-4-195-5z"/><path d="M1885 530c-99-103-285-111-409-16-24 18-50 24-113 30l-83 6V210h345c267 0 347 3 350 13 3 6 6 84 7 172l3 160-35 3c-29 2-41-3-65-28z"/></g><g fill="#505050"><path d="M0 1200V0h2420v2400H0V1200zm540 1030c43-43 53-107 18-112-18-2-24-11-26-35-3-28 0-33 18-33 21 0 27-8 32-45 2-14-3-21-19-23-40-6-42-82-3-82 41 0 36-54-6-64-21-6-25-12-22-39 2-24 8-33 25-35 33-5 39-72 6-72-7 0-25-7-39-16-19-13-41-16-101-12-104 7-113-2-113-117 0-121 5-125 156-125 74 0 113-4 109-10-3-5-15-10-26-10-17 0-20-6-17-32 2-25 8-34 26-36 14-2 22-10 22-23 0-34-27-87-51-99-27-15-261-15-288 0-21 11-51 69-51 99 0 16 6 21 25 21 22 0 25 4 25 35 0 28-4 35-20 35-41 0-47 66-6 72 30 4 31 71 1 77-42 7-46 44-7 63 36 17 40 71 5 76-38 5-37 69 1 74 17 2 21 10 21 38 0 27-4 35-18 35-39 0-43 61-3 67 17 2 21 10 21 38s-4 36-21 38c-27 4-36 35-18 59 7 10 14 14 14 9 1-23 30 20 30 45 0 24-4 29-25 29-18 0-25 5-25 19 0 30 17 68 40 91 18 18 32 20 155 20s137-2 155-20zm1774-8c14-16 29-45 33-65 5-35 4-37-21-37-23 0-26-4-26-34 0-28 4-35 23-38 17-2 23-11 25-35 3-30 1-33-22-33-24 0-26-4-26-40s2-40 26-40c23 0 25-3 22-32-2-25-8-33-23-33-16 0-21-8-23-37-3-32 0-37 20-40 18-2 23-9 23-33s-5-31-23-33c-20-3-23-8-20-40 2-30 8-38 26-40 17-3 22-10 22-33 0-24-4-29-25-29-22 0-25-4-25-40s2-40 26-40c23 0 25-3 22-32-2-25-8-34-25-36-19-3-23-10-23-38 0-30 3-34 25-34 30 0 33-23 9-73-26-54-44-60-187-59-120 1-131 3-153 23-24 23-48 85-38 101 3 4 13 8 24 8 10 0 21 7 24 16 10 25-3 54-24 54-10 0-22 5-25 10-4 6 34 10 107 10 152 0 151-1 151 125 0 118-2 120-115 117-56-1-81 3-92 13-8 8-24 15-35 15-17 0-21 6-21 35 0 30 3 35 24 35 16 0 27 7 31 20 8 27-11 60-36 60-30 0-23 54 8 58 25 4 38 32 28 61-3 11-16 21-28 23-29 4-33 63-4 63 23 0 40 29 32 55-4 13-15 20-31 20-13 0-24 4-24 9 0 21 25 78 43 99 19 21 28 22 157 22h136l28-28zm-900-447c12-13 56-15 263-15h248v-40l1-39-266-6c-332-6-448-6-782 0l-268 6v79h249c209 0 251 2 261 15 10 12 39 15 146 15 104 0 136-3 148-15zm764-147c13-13 16-146 4-166-7-10-198-12-923-10l-914 3-3 84c-2 61 1 87 10 92 7 5 418 9 914 9 687 0 903-3 912-12zM690 1343c0-113-10-139-83-211l-63-63-150 3-149 3 38 18c31 14 37 22 37 47v30h103c90 1 105 3 128 23 60 50 79 138 34 159-30 13-33 28-6 28 11 0 23 9 26 20 5 16 15 20 46 20h39v-77zm1130-15c0-111 7-127 103-232 73-79 86-111 87-196 0-57-36-113-88-138-34-16-88-17-657-17-607 0-621 0-655 21-57 33-80 77-80 150 0 82 6 96 84 182 104 115 99 102 105 275l1 47h1100v-92zm107 76c3-8 17-20 32-26 26-10 26-10 4-18-46-18-49-62-10-128 30-50 62-62 172-62h97l-6-27c-6-25-2-30 36-48l42-20-155-3-154-3-53 58c-76 84-84 103-87 205l-2 88h39c26 0 41-5 45-16zM452 1042l76-2-11-25c-11-23-17-25-78-25-59 0-68-3-94-30-23-24-26-32-16-44 23-27 16-77-13-103-33-28-59-29-97-2-36 25-39 73-8 113 18 22 28 27 59 25 36-3 70 13 70 32 0 5-20 9-44 9-45 0-70 17-61 41 5 14 21 15 217 11zm1848-14c0-23-30-38-74-38-40 0-45-9-18-34 13-11 28-14 50-10 44 9 79-16 88-62 6-30 3-40-19-62-31-30-78-34-106-8-27 25-36 72-19 98 13 20 12 25-10 50-23 25-31 28-93 28-57 0-70 3-79 19-5 11-10 22-10 25 0 6 107 11 217 11 62 0 73-3 73-17zM500 916c0-89 34-144 110-180 44-21 57-21 623-24 371-2 599 1 635 8 109 20 158 74 173 190 7 56 3-318-7-595-4-123-8-152-22-162-23-19-1475-19-1490-1-15 20-21 102-28 408-3 157-7 311-8 343-1 31 2 57 6 57 5 0 8-20 8-44z"/><path d="M1006 1394c-24-23-24-545 0-568 19-20 38-20 53-2 17 20 16 552 0 572-15 18-34 18-53-2zm122 5c-17-9-18-34-18-290V830l25-12c19-8 28-8 40 2 13 11 15 53 15 289 0 276-3 302-34 301-6 0-19-5-28-11zm114-1c-9-9-12-87-12-289 0-236 2-278 15-289 12-10 21-10 40-2l25 12v279c0 267-1 281-19 291-25 13-34 13-49-2zm115-6c-15-16-17-51-17-284 0-244 1-266 18-281 23-21 36-21 51-3 18 22 17 566-1 577-20 13-33 11-51-9zm119 2c-24-23-24-545 0-568 19-19 36-20 52-4 17 17 17 559 0 576-16 16-33 15-52-4zm-690-140c-30-30-13-74 29-74 27 0 45 18 45 45 0 42-44 59-74 29zm901-2c-14-15-15-25-8-46 14-35 67-38 80-3 19 47-38 86-72 49zm-994-173c-125-80-75-259 71-259 62 0 119 43 135 103 12 40 11 50-7 91-36 80-128 111-199 65zm1010 1c-36-22-73-85-73-126 0-36 36-97 70-117 38-23 107-22 147 3 65 39 85 105 54 174-35 80-126 110-198 66zm232-528c-16-2-43-16-60-31-47-43-76-58-139-71-94-19-181 1-254 58-31 25-50 30-119 36l-83 6V210h345c268 0 347 3 350 13 2 6 6 78 8 160 5 161 1 175-48 169zM555 541c-7-12 3-310 11-323 3-4 160-8 350-8h344l-2 168-3 167-346 3c-248 3-349 0-354-7z"/><path d="M1490 542c0-4 21-20 48-36 37-23 63-30 118-34 66-4 77-2 138 28 37 18 69 37 72 42 3 4-81 8-185 8-105 0-191-3-191-8z"/></g><g fill="#959595"><path d="M0 1200V0h2420v2400H0V1200zm528 1044c28-19 52-65 52-98 0-18-6-25-22-28-18-2-23-10-23-33s5-31 22-33c14-2 25-12 29-27 7-30-2-45-26-45-10 0-22-9-25-20-9-29 4-60 25-60 25 0 32-13 24-44-3-15-14-26-27-28-32-4-32-62 0-66 34-5 38-72 4-72-9 0-25-7-36-16-14-10-42-14-99-13-104 2-116-10-116-118 0-65 3-77 25-98 23-24 31-25 135-25 61 0 110-4 110-9s-10-11-22-13c-18-2-23-10-23-33s5-31 23-33c27-4 30-38 7-82-28-53-48-60-184-60H257l-33 36c-42 44-48 101-11 106 32 4 32 62 0 66-38 5-37 69 1 74 17 2 21 10 21 38s-4 36-22 38c-41 6-41 68 0 74 32 4 32 62 0 66-38 5-37 69 1 74 31 4 31 62-1 66-38 5-37 69 1 74 17 2 21 10 21 38s-4 36-21 38c-36 5-39 72-4 72 25 0 33 15 26 46-4 15-14 24-26 24-46 0-9 109 44 130 11 5 73 9 136 9 89 1 121-3 138-15zm1776-9c28-26 46-64 46-96 0-14-7-19-25-19-22 0-25-4-25-34 0-28 4-35 23-38 17-2 23-11 25-35 3-26-1-32-20-35-19-2-23-9-23-38s4-36 23-38c19-3 23-9 20-35-2-24-8-33-25-35-19-3-23-10-23-38 0-30 3-34 25-34s25-4 25-35-3-35-25-35-25-4-25-34c0-28 4-35 23-38 17-2 23-11 25-35 3-26-1-32-20-35-19-2-23-9-23-38s4-36 23-38c19-3 23-9 20-35-2-24-8-33-25-35-19-3-23-10-23-38 0-30 3-34 25-34 30 0 33-23 9-73-27-57-56-67-187-67-109 0-117 1-146 25-30 26-57 87-46 105 3 5 15 10 26 10 15 0 19 7 19 35s-4 35-19 35c-11 0-23 5-26 10-4 6 32 10 102 10 150 0 153 3 153 124 0 65-4 97-13 104-7 7-50 12-96 13-55 1-87 6-96 15-7 8-23 14-34 14-17 0-21 6-21 35 0 31 3 35 25 35s25 4 25 34c0 28-4 35-22 38-18 2-24 11-26 35-3 26 1 32 20 35 19 2 23 9 23 38s-4 36-23 38c-19 3-23 9-20 35 2 24 8 33 26 35 18 3 22 10 22 38 0 30-3 34-25 34-29 0-32 15-11 64 27 65 54 76 191 76 116 0 123-1 149-25zm-890-460c12-13 56-15 265-15h251v-80h-258c-168 0-262-4-269-11s-56-8-144-4c-74 3-251 8-394 11l-260 5 3 39 4 40h248c208 0 250 2 260 15 10 12 39 15 146 15 104 0 136-3 148-15zm771-230v-90H345l-3 79c-2 44-1 85 2 93 5 11 162 13 923 11l918-3v-90zM690 1333c-1-49-6-100-13-114-7-15-38-55-69-88l-57-62-153 3-153 3 38 19c29 16 37 25 37 48v28h202l38 38c56 56 64 142 14 142-8 0-14 7-14 15s7 15 15 15 20 9 27 20c9 14 24 20 50 20h38v-87zm1130 2c0-109 12-137 100-233 79-86 94-123 88-214-3-47-10-64-33-88-57-60-60-60-704-60-385 0-599 4-624 11-91 25-136 107-117 210 11 56 13 59 103 158 32 35 62 73 67 85 4 12 11 65 15 119l7 97h1098v-85zm113 65c3-12 14-20 26-20 28 0 27-28-1-32-52-7-20-131 42-163 20-10 59-15 125-15h95v-29c0-23 7-32 38-47l37-19-154-3-155-3-48 48c-79 77-90 102-96 209l-5 94h45c37 0 47-4 51-20zM491 1040c37 0 38-1 27-25-10-23-16-25-78-25-60 0-69-3-95-30-23-24-26-32-16-44 23-27 16-77-13-103-34-28-65-29-100-2-59 46-18 144 57 138 33-3 67 13 67 32 0 5-20 9-44 9-47 0-72 19-62 46 6 15 19 16 113 11 58-4 123-7 144-7zm1809-8c0-29-21-42-69-42h-44l21-23c17-18 30-22 56-19 27 3 40-2 60-22 48-47 25-119-41-132-27-5-37-1-63 24-32 32-37 60-19 95 10 18 7 25-20 49-27 25-39 28-96 28-36 0-65 4-65 9s-3 16-6 25c-6 16 20 19 214 24 63 2 72 0 72-16zM500 913c0-60 29-124 66-150 68-48 73-48 699-48 650 0 647 0 715 61 41 38 68 112 56 159-4 14-2 25 4 25 13 0 13-134 0-510-8-251-12-286-27-297-13-10-177-13-749-13-623 0-735 2-747 14-11 12-16 75-21 323-3 169-9 347-13 396-4 61-2 87 6 87 6 0 11-19 11-47z"/><path d="M1007 1392c-15-16-17-51-17-284 0-248 1-266 19-282 15-14 24-15 40-6 21 10 21 17 21 290 0 266-1 280-19 290-25 13-25 13-44-8zm119 2c-24-23-24-545 0-568 19-19 24-19 47-2 15 12 17 38 17 286s-2 274-17 286c-23 17-28 17-47-2zm122 5c-17-9-18-34-18-289 0-273 0-280 21-290 16-9 25-8 40 6 18 16 19 34 19 284 0 246-1 268-18 283-21 20-21 20-44 6zm114-1c-9-9-12-87-12-289 0-240 2-278 16-290 11-9 20-10 32-2 15 9 17 41 20 288 2 277-1 305-32 305-7 0-17-5-24-12zm115-6c-15-16-17-51-17-284 0-248 1-266 19-282 15-14 24-15 40-6 21 10 21 17 21 290 0 266-1 280-19 290-25 13-25 13-44-8zm-691-141c-35-39 25-96 62-59 18 18 14 56-7 68-27 14-35 13-55-9zm904 5c-28-35 11-93 48-70 35 22 22 84-18 84-10 0-23-7-30-14zm-988-172c-68-35-97-119-64-184 37-74 129-102 199-59 43 27 63 66 63 124 0 39-5 51-37 85-46 49-107 61-161 34zm1008-1c-83-43-100-150-36-221 27-28 41-35 82-39 93-9 154 47 154 140 0 42-5 53-38 88-46 50-105 62-162 32zM555 538c-3-7-2-83 3-168l7-155 348-3 347-2v327l-122 6c-218 12-578 9-583-5zm935 3c0-20 123-71 170-71 61 0 138 24 175 54l30 25-187 1c-109 0-188-4-188-9z"/><path d="M1873 516c-73-58-110-71-198-71-89 1-164 26-206 71-20 22-31 24-106 24h-83V210l348 2 347 3 5 158c3 86 4 162 2 167-8 22-68 8-109-24z"/></g><g fill="#d4d4d4"><path d="M0 1200V0h2420v2400H0V1200zm539 1034c29-24 56-88 45-106-3-4-13-8-23-8s-21-8-23-17c-7-31 3-53 23-53 40 0 37-76-4-82-31-4-31-52 0-56 41-6 44-82 4-82-36 0-34-67 2-72 30-4 32-61 2-66-11-3-23-10-27-17-6-9-35-13-99-13-55 0-96-5-105-12-19-17-20-192-1-208 7-7 66-13 133-14 72-2 118-7 117-13-1-5-11-11-22-13-34-5-35-72-1-72 10 0 21-4 24-8 11-18-16-82-45-106-29-25-36-26-154-26s-125 1-154 26c-29 24-56 88-45 106 3 4 14 8 24 8 24 0 33 15 26 45-4 15-15 25-29 27-18 2-22 9-22 38 0 27 5 36 20 39 42 8 49 58 8 63-17 2-27 10-29 23-5 32 6 55 26 55 25 0 32 13 24 44-3 15-14 26-27 28-17 2-22 10-22 33s5 30 25 35 25 12 25 35-5 30-25 35c-21 5-25 12-25 40s4 36 22 38c40 6 40 58 0 64-31 4-32 71-2 76 30 6 38 18 31 46-4 17-13 26-26 26-10 0-21 4-24 8-11 18 16 82 45 106 29 25 36 26 154 26s125-1 154-26zm1760 10c25-18 51-71 51-103 0-13-8-21-22-23-18-2-24-11-26-35-3-30-1-33 23-33s26-3 23-37c-2-31-7-39-25-41-18-3-23-10-23-32s5-29 23-32c18-2 23-10 25-40 3-35 1-38-23-38s-26-3-23-32c2-25 8-34 26-36 18-3 22-10 22-38 0-30-3-34-25-34s-25-4-25-35 3-35 26-35 25-3 22-37c-2-31-7-39-25-41-18-3-23-10-23-32s5-29 23-32c18-2 23-10 25-40 3-35 1-38-23-38s-26-3-23-32c2-25 8-34 26-36 14-2 22-10 22-23 0-34-40-99-66-109-37-15-244-12-273 3-28 14-61 71-61 104 0 18 6 23 25 23 22 0 25 4 25 34 0 28-4 35-22 38-12 2-23 9-26 16-3 9 25 12 115 12 79 0 123 4 131 12 17 17 16 192-1 207-8 6-54 11-105 12-68 1-92 4-96 15-3 8-15 14-26 14-16 0-20 6-20 34s4 35 23 38c17 2 23 11 25 35 3 26-1 32-20 35-19 2-23 9-23 38s4 36 23 38c17 3 22 10 22 32s-5 29-22 32c-19 2-23 9-23 38s4 36 23 38c18 3 22 10 22 38 0 30-3 34-25 34-18 0-25 5-25 20 0 33 39 100 63 110 12 5 76 9 142 9 96 1 125-2 144-15zm-899-459c20-11 77-14 278-15h252v-89l-257-5c-142-3-321-8-397-11-92-4-142-3-149 4s-100 11-267 11H605l1 42 1 43 249 2c141 2 258 7 269 13 11 5 67 11 125 13 58 1 110 4 115 5 6 1 21-5 35-13zm785-240v-90H345l-3 79c-2 44-1 85 2 93 5 11 162 13 923 11l918-3v-90zM690 1333c0-111-4-120-92-215l-53-57-155 7-155 8 43 18c36 15 42 23 42 47v29h101c101 0 101 0 134 33 41 41 64 109 45 132-7 8-19 15-26 15-8 0-14 7-14 15s7 15 15 15c9 0 21 11 27 25 9 20 18 25 50 25h38v-97zm1132-5c2-57 10-114 17-127s44-56 81-97c79-85 94-121 88-211-4-60-7-68-40-99-20-18-53-37-75-43-25-7-242-11-633-11H665l-53 25c-69 32-97 87-87 168 10 75 22 97 101 184 38 43 73 86 77 95 3 9 7 58 8 110 1 51 3 96 6 101 2 4 251 7 552 7h548l5-102zm111 81c3-11 15-23 26-26 28-7 27-31-1-35-30-4-35-38-13-95 26-68 59-83 178-83h97v-29c0-24 7-32 42-48l41-20-158-5-158-6-56 60c-82 89-90 107-91 216v92h44c36 0 45-4 49-21zM476 1044c51-6 51-7 41-33-9-26-13-27-73-27-55 1-67-2-89-24-23-23-24-29-14-57 21-61-39-128-97-108-39 14-68 57-60 89 11 45 42 68 87 65 26-2 45 2 55 13 16 15 14 17-22 23-52 8-68 18-72 44-3 20 0 21 95 21 54 0 121-3 149-6zm1829-4c14-22-16-49-60-56-42-6-45-8-31-23 11-12 26-16 51-13 75 9 115-79 60-133-66-66-168 14-124 98 10 18 7 25-21 50-31 27-36 29-91 23-57-7-58-6-73 23l-16 30 43 4c93 8 256 7 262-3zM501 920c-1-22 2-55 8-73 15-45 78-103 126-116 54-15 1215-15 1267-1 44 13 93 52 113 91 8 15 15 53 15 83 0 49 12 80 22 59 8-15-18-802-26-810-4-4-342-9-750-11-587-2-745 0-758 10-14 11-17 49-22 263-3 138-9 314-12 391-6 130-2 175 14 159 3-3 5-24 3-45z"/><path d="M1005 1388c-3-7-4-137-3-288l3-275h60v570l-28 3c-16 2-29-2-32-10zm117 0c-9-9-12-85-12-279 0-290 2-298 55-285l25 6v279c0 245-2 280-16 285-24 9-39 7-52-6zm114-4c-3-9-6-134-6-278 0-190 3-265 12-274 20-20 48-14 58 14 6 14 10 133 10 264s-4 250-10 264c-11 30-54 36-64 10zm119 4c-3-7-4-137-3-288l3-275h60v570l-28 3c-16 2-29-2-32-10zm120 0c-3-7-4-137-3-288l3-275h60v570l-28 3c-16 2-29-2-32-10zm-672-129c-38-14-27-79 13-79 23 0 44 25 44 54 0 22-31 35-57 25zm899 0c-18-7-23-15-20-35 4-35 31-53 56-38 21 14 28 50 12 70-14 16-16 16-48 3zM702 1081c-33-16-47-30-63-66-17-39-18-51-8-87 24-92 109-133 192-93 118 57 90 241-38 260-29 4-52 0-83-14zm1011 0c-67-31-95-107-64-176 29-64 54-80 123-80 57 0 61 2 100 43 39 42 40 46 36 99-4 46-10 60-39 88-45 43-98 52-156 26zM559 544c-3-5-3-81 0-169l6-160 342-3 343-2 6 25c7 29 1 291-7 299-10 10-686 20-690 10zm966-3l-30-7 27-18c35-23 112-46 153-46 46 0 127 28 161 56l29 23-155-1c-85 0-168-3-185-7z"/><path d="M1891 526c-42-45-129-80-207-84-61-4-78 0-135 25-35 17-73 40-83 51-17 19-30 22-103 22h-83V210h687l6 48c5 38 10 226 8 280-1 23-66 14-90-12z"/></g><g fill="#fefefe"><path d="M0 1200V0h2420v2400H0V1200zm545 1036c24-24 53-101 43-112-4-3-14-7-23-8-40-6-39-66 1-66 20 0 24-5 24-27 0-35-10-50-35-54-14-3-20-12-20-29s6-26 20-29c25-4 35-19 35-53 0-23-4-28-24-28-41 0-42-54-1-61 16-4 20-12 20-44 0-34-3-40-22-43-13-2-23-7-23-12s-37-9-82-9h-95c-32-2-43-32-43-121 0-78 2-91 19-100 11-5 72-10 135-10 96 0 116-3 116-15 0-9-9-15-24-15-14 0-26-7-28-18-6-20 4-54 15-53 28 3 37-1 37-19 0-30-37-98-59-110-11-5-76-10-146-10-144 0-164 7-189 71-22 55-20 69 8 69 31 0 36 8 29 43-4 21-11 27-30 27-22 0-24 4-21 37 2 29 8 39 23 42 42 7 49 58 8 63-17 2-27 10-29 23-5 32 6 55 26 55 39 0 37 56-3 62-17 2-23 11-25 39-3 33 0 38 28 48 24 8 31 15 28 33-2 14-12 24-28 28-21 5-25 12-25 40s4 36 22 38c40 6 40 58 0 64-17 2-23 11-25 41-3 34-1 37 22 37 30 0 40 13 32 46-5 17-13 24-31 24-30 0-33 25-9 73 31 62 45 67 192 67 127 0 134-1 157-24zm1761 1c15-13 33-43 40-66 11-39 11-42-10-53-11-6-23-9-26-7s-6-11-8-28c-3-30-1-33 23-33 29 0 40-19 31-54-4-15-14-26-29-28-31-4-32-52 0-56 12-2 25-12 28-23 10-29-3-57-28-61-29-4-38-58-10-58 25 0 43-19 43-45s-18-45-43-45c-29 0-19-54 10-58 14-2 25-12 29-27 7-30-1-44-33-56-31-12-29-52 4-57 44-6 41-82-3-82-18 0-24-5-24-22 0-21 19-64 20-45 0 4 9 3 19-3 17-9 18-14 8-47-6-21-22-50-36-66-24-27-26-27-147-27-68 0-134 4-148 10-32 12-66 65-66 103 0 22 4 27 25 27s25 5 25 30c0 23-6 33-25 40-53 20-24 30 89 30 145 0 146 1 146 115 0 105-8 115-93 116-34 1-74 0-89-1-16-1-28 3-28 9 0 5-10 11-22 13-20 3-23 9-23 43s3 40 23 43c32 5 31 49-2 62-42 15-41 80 0 80 20 0 24 5 24 29 0 23-5 30-22 33-18 2-24 11-26 36-3 27 1 34 22 42 20 7 26 16 26 40 0 19-5 30-12 29-30-4-38 3-37 29 1 36 30 84 60 99 15 8 69 13 146 13 114 0 124-2 149-23zm-899-455c15-8 98-12 271-12h250l4-46c2-25 1-47-1-50-3-3-118-4-255-4-146 1-261-3-276-9-17-7 97-10 372-10 347-1 399-3 412-17 22-22 22-156 0-178-14-14-111-16-919-16s-905 2-919 16c-22 22-22 156 0 178 13 14 65 16 416 16 221 0 398 3 394 8-4 4-130 9-279 12l-272 5-2 48-2 47h252c178 1 258 4 274 13 29 16 250 15 280-1zm-712-454c-8-116-17-137-90-207-25-24-45-48-45-52 0-9-307-5-316 4-3 3 12 13 33 23 29 15 38 25 38 44 0 25 1 25 100 30 71 3 109 10 126 22 57 37 79 149 32 156-30 4-29 20 1 33 13 6 27 20 29 30 4 15 15 19 52 19h48l-8-102zm1130 53c4-27 6-64 5-83-4-76-1-84 75-169 87-98 103-127 109-200 7-76-23-135-85-167l-45-23h-610c-589 0-611 1-655 20-79 35-103 80-95 175 6 76 19 100 106 191 68 71 79 100 81 218l2 87h1105l7-49zm113 24c6-14 18-25 27-25 22 0 18-27-5-33-31-8-34-33-13-90 27-72 59-87 181-87h92v-27c0-23 7-31 42-45 23-10 39-20 36-23s-75-8-161-10l-155-5-58 67c-80 91-84 100-84 209v94h43c37 0 46-4 55-25zM523 1021c-8-36-7-36-79-36-55 0-67-4-90-26-22-22-24-30-15-47 30-56-1-110-66-119-36-5-45-2-67 22-52 56-16 138 60 139 49 1 74 15 50 28-9 5-20 7-25 3-19-11-61 18-61 42v24l150-2 150-1-7-27zm1787 10c0-27-37-51-79-51-33 0-34-1-17-19 14-16 22-18 36-9 28 18 80-8 96-48 34-82-59-149-130-93-20 15-26 29-26 58 0 20 6 43 13 50 10 10 5 18-22 43-32 29-36 30-96 23-55-6-63-4-68 12-2 10-8 25-11 34-6 13 12 16 149 18 149 2 155 1 155-18zM507 911c0-72 21-113 82-156l43-30h626c622 0 627 0 674 22 66 30 98 83 98 163 0 47 3 60 15 60 13 0 15-18 10-127-7-188-19-624-18-653 1-14-3-31-9-37-15-19-1487-19-1511 0-14 10-17 40-22 197-2 102-7 283-11 403-5 189-4 217 9 217 12 0 15-13 14-59z"/><path d="M1007 1393c-4-3-7-132-7-285 0-249 2-279 16-285 9-3 24-2 33 4 14 9 16 44 19 278 2 189-1 272-9 281-12 15-41 19-52 7zm118-5c-3-7-4-137-3-288l3-275h50v570l-23 3c-12 2-24-3-27-10zm117 0c-17-17-17-539 0-556 20-20 48-14 58 14 6 14 10 133 10 264s-4 250-10 264c-10 28-38 34-58 14zm120 0c-17-17-17-539 0-556s45-15 52 4c8 20 8 528 0 548-7 19-35 21-52 4zm115 5c-4-3-7-132-7-285 0-249 2-279 16-285 9-3 24-2 33 4 14 9 16 44 19 278 2 189-1 272-9 281-12 15-41 19-52 7zm-674-134c-29-11-31-54-4-69 27-14 63 17 55 47-7 27-22 33-51 22zm899-5c-30-21-28-52 4-66 22-11 28-10 40 7 19 25 18 39-4 58-16 15-20 15-40 1zM680 1064c-84-72-66-187 36-230 110-46 217 67 170 179-31 76-143 104-206 51zm1005-7c-18-18-38-51-44-72-10-35-8-46 12-85 28-54 64-75 130-74 40 0 53 6 82 34 44 43 55 101 29 155-23 49-67 75-127 75-42 0-54-5-82-33zM559 527c-2-75 2-229 7-265l6-42 342 2 341 3v152c0 83-2 154-5 156-3 3-159 8-348 11l-342 5-1-22zm965 12c-28-6-28-6 28-33 88-42 217-34 278 17l26 22h-151c-83 0-164-3-181-6z"/><path d="M1873 511c-52-47-128-73-210-73-50 0-76 7-129 33-36 18-71 41-78 51-9 15-24 18-88 18h-78V220h680v23c1 12 3 58 5 102 5 115 7 178 6 193-1 7-14 12-33 12-24-1-45-12-75-39z"/></g></svg>